<svg xmlns="http://www.w3.org/2000/svg" width="123" height="12" fill="none"><g fill="#CA89EA" clip-path="url(#a)"><path d="M6.944 11.5c-.576 0-1.033-.27-1.321-.812L0 .5h3.336l3.947 7.446L11.229.5h3.336l-5.64 10.188c-.288.541-.728.812-1.304.812h-.677ZM27.94 11.5H17.356V.5h10.569v2.826h-7.605V4.88h5.897v2.24h-5.897v1.537h7.622V11.5ZM39.96 11.5h3.86l-2.777-3.232c1.372-.66 2.252-1.98 2.252-3.656C43.295 2.158 41.466.5 38.944.5h-7.587v11h2.947V3.326h4.64c.813 0 1.389.559 1.389 1.405s-.576 1.404-1.39 1.404h-2.687v2.249h1.503l2.201 3.116Z"/><path fill-rule="evenodd" d="M46.547 11.5V.5h7.96c2.37 0 3.32 1.252 3.32 2.894 0 1.134-.458 1.997-1.237 2.301.864.271 1.507 1.185 1.507 2.573 0 1.98-1.304 3.232-3.658 3.232h-7.892Zm7.756-4.417h-2.109V4.837h1.94c.508 0 .813-.31.813-.817 0-.508-.305-.778-.813-.778h-4.623v5.5h4.776c.559 0 .88-.288.88-.796 0-.541-.305-.863-.864-.863Z" clip-rule="evenodd"/><path d="M71.164 11.5h3.218L68.758 1.312C68.454.771 68.014.5 67.438.5h-.678c-.576 0-1.016.27-1.32.812L59.815 11.5h3.27l4.03-7.582 3.133 5.89.915 1.692ZM81.426 11.5h-2.964V3.326h-4.048V.5h11.06v2.826h-4.048V11.5ZM88.441 11.5h2.964V.5h-2.964v11ZM105.821 11.5h-5.386c-3.37 0-5.826-2.217-5.826-5.5S97.065.5 100.435.5h5.386v2.826h-5.589c-1.541 0-2.676 1.083-2.676 2.674 0 1.574 1.135 2.657 2.676 2.657h5.589V11.5ZM119.781 11.5h3.218l-5.623-10.188c-.305-.541-.745-.812-1.321-.812h-.678c-.576 0-1.016.27-1.321.812L108.434 11.5h3.268l4.031-7.582 3.133 5.89.915 1.692Z"/></g><defs><clipPath id="a"><path fill="#fff" d="M0 .5h123v11H0z"/></clipPath></defs></svg>