<svg xmlns="http://www.w3.org/2000/svg" width="417" height="375" fill="none"><path fill="#112054" fill-opacity=".68" stroke="#1F71EE" stroke-width="3" d="M2 34.5V357l16.5 16.5h95l8.5-8.5h21l6 6.5h37.5l11.5-12h90l11.5 12h100L414 356l1-326-19-18.5H276L266.5 2h-42l-9.5 9.5H25l-23 23Z"/><path fill="#112054" d="M166.381 362H184l-2.381 2H164l2.381-2ZM170.381 358H188l-2.381 2H168l2.381-2ZM232.81 7H261l-3.81 4H229l3.81-4Z"/><path fill="#E27B02" d="M232.864 7H246l-3.864 4H229l3.864-4Z"/><path fill="#112054" d="M232.81 7H261l-3.81 4H229l3.81-4Z"/><path fill="#78693F" fill-opacity=".75" d="M232.81 7H261l-3.81 4H229l3.81-4Z"/><path fill="#E27B02" d="M232.864 7H246l-3.864 4H229l3.864-4ZM166.5 362h8.5l-2.5 2H164l2.5-2ZM170.5 358H183l-2.5 2H168l2.5-2Z"/></svg>