<svg xmlns="http://www.w3.org/2000/svg" width="435" height="427" fill="none"><path fill="#112054" fill-opacity=".68" stroke="#1F71EE" stroke-width="1.02" d="M1 33.5V410l16.5 16.5h95l8.5-8.5h21l6 6.5h37.5l11.5-12h110l11.5 11h100L433 409l1-380-19-18.5h-30L375.5 1h-42l-9.5 9.5H24l-23 23Z"/><path fill="#112054" d="M339.31 4h28.19l-3.81 4H335.5l3.81-4Z"/><path fill="#78693F" fill-opacity=".75" d="M339.31 4h28.19l-3.81 4H335.5l3.81-4Z"/><path fill="#112054" d="M168.881 417H186.5l-2.381 2H166.5l2.381-2ZM172.881 413H190.5l-2.381 2H170.5l2.381-2Z"/><path fill="#E27B02" d="M339.364 4H352.5l-3.864 4H335.5l3.864-4ZM169 417h8.5l-2.5 2h-8.5l2.5-2ZM173 413h12.5l-2.5 2h-12.5l2.5-2Z"/></svg>