<svg xmlns="http://www.w3.org/2000/svg" width="52" height="52" fill="none"><g filter="url(#a)"><path fill="#000" fill-opacity=".1" d="M51 38V1H11L1 11v40h37l13-13Z"/><path stroke="#78693F" stroke-opacity=".4" d="M.5 51.5h37.707L51.5 38.207V.5H10.793L.5 10.793V51.5Z"/><path fill="#FEA033" fill-rule="evenodd" d="M35.248 26.804h-1.746c-.415 0-.79.38-.79.804-.332 3.427-3.2 6.092-6.651 6.092-3.7 0-6.735-3.089-6.735-6.812 0-3.723 3.035-6.727 6.652-6.769v1.1c0 .508.332.677.79.508l5.612-2.877c.457-.254.457-.635 0-.889l-5.613-2.919C26.643 15 26.56 15 26.477 15c-.291 0-.5.17-.5.508v1.1C20.49 16.692 16 21.219 16 26.804 16 32.474 20.448 37 26.02 37c5.279 0 9.603-4.188 9.977-9.477.041-.338-.333-.72-.748-.72Z" clip-rule="evenodd"/></g><defs><filter id="a" width="52" height="56" x="0" y="0" color-interpolation-filters="sRGB" filterUnits="userSpaceOnUse"><feFlood flood-opacity="0" result="BackgroundImageFix"/><feBlend in="SourceGraphic" in2="BackgroundImageFix" result="shape"/><feColorMatrix in="SourceAlpha" result="hardAlpha" values="0 0 0 0 0 0 0 0 0 0 0 0 0 0 0 0 0 0 127 0"/><feOffset dy="4"/><feGaussianBlur stdDeviation="2"/><feComposite in2="hardAlpha" k2="-1" k3="1" operator="arithmetic"/><feColorMatrix values="0 0 0 0 0 0 0 0 0 0 0 0 0 0 0 0 0 0 0.25 0"/><feBlend in2="shape" result="effect1_innerShadow_3537_39889"/></filter></defs></svg>