<svg xmlns="http://www.w3.org/2000/svg" width="87" height="582" fill="none"><path stroke="#E27B02" stroke-width="2" d="M55 192a3 3 0 1 1-6 0M43.868 189h16.264L52 176.803 43.868 189Z"/><path stroke="#217AFF" stroke-opacity=".2" d="M74.5 211.5H41.793L28.5 198.207V160.5h35.707L74.5 170.793V211.5Z"/><g opacity=".68"><path fill="#112054" d="M15-62v-68h108.5c22 0 9.167 456 0 709L61 517v-52.5L49 452v-39.5L61 400V251.5L15 205V45L1 31v-79l14-14Z"/><path stroke="#78693F" stroke-opacity=".4" d="m.5 31.207 14 14v159.998l.145.147L60.5 251.705v148.094l-11.86 12.354-.14.146v39.902l.14.146 11.86 12.354v52.507l.148.146 62.499 62 .811.805.042-1.14c4.583-126.502 10.083-303.757 11.688-449.388.802-72.814.63-137.73-1.118-184.446-.874-23.356-2.143-42.176-3.882-55.164-.87-6.489-1.86-11.548-2.987-14.994-.562-1.719-1.168-3.071-1.832-4.002-.658-.922-1.442-1.525-2.369-1.525h-109v68.293l-14 14v79.414Z"/></g></svg>