<svg xmlns="http://www.w3.org/2000/svg" width="124" height="12" fill="none"><g clip-path="url(#a)"><path fill="#000" d="M38.332 10.165c-.698-.785-1.047-1.851-1.047-3.169 0-1.067.2-1.945.582-2.62.382-.674.897-1.145 1.545-1.443.648-.298 1.362-.439 2.177-.439.564 0 1.08.063 1.545.188a5.97 5.97 0 0 1 1.412.58l-.731 1.381a4.01 4.01 0 0 0-2.143-.596c-1.579 0-2.36.941-2.36 2.84 0 .94.216 1.662.648 2.148.432.487 1.047.738 1.861.738 1.562 0 2.642-.863 2.99-1.255.267-.283 1.064 1.02.782 1.286-.449.455-1.761 1.537-3.955 1.537-1.495 0-2.608-.392-3.306-1.176Z"/><path fill="#000" d="M46.441 10.777c-.665-.377-1.18-.895-1.512-1.57-.349-.674-.515-1.442-.515-2.32 0-.973.216-1.789.631-2.448a3.873 3.873 0 0 1 1.662-1.474c.681-.314 1.446-.47 2.293-.47.964 0 1.778.187 2.442.564.665.376 1.18.894 1.512 1.568.333.675.499 1.444.499 2.322 0 .973-.2 1.788-.615 2.447a3.789 3.789 0 0 1-1.645 1.459c-.681.314-1.445.47-2.293.47-.98.016-1.794-.172-2.459-.548Zm3.838-1.302c.382-.236.665-.565.864-.989.183-.439.283-.94.283-1.521 0-.926-.216-1.647-.632-2.165-.415-.518-1.03-.784-1.81-.784-.831 0-1.463.25-1.895.768-.432.518-.648 1.208-.648 2.102 0 .926.216 1.647.631 2.165.416.518 1.03.784 1.828.784.532-.015.997-.125 1.38-.36ZM55.61 10.87c-.58-.314-1.013-.753-1.262-1.302-.266-.55-.399-1.16-.399-1.867v-5.02h1.911v4.8c0 .738.15 1.303.465 1.71.316.408.864.612 1.645.612.748 0 1.263-.204 1.562-.612.299-.407.449-.925.449-1.584V2.682h1.91V7.67c0 .863-.182 1.569-.531 2.118-.35.548-.831.94-1.43 1.192-.597.25-1.312.376-2.093.376-.897-.015-1.645-.172-2.226-.486ZM75.185 6.65c-.365-.187-.83-.376-1.429-.595l-.299-.11a11.215 11.215 0 0 1-1.03-.408c-.233-.125-.399-.235-.498-.36a.593.593 0 0 1-.133-.393c0-.235.116-.423.332-.564.233-.142.565-.204.997-.204.399 0 .764.062 1.097.172.332.11.73.298 1.18.55l.896-1.287a6.124 6.124 0 0 0-1.578-.706 5.79 5.79 0 0 0-1.595-.235 5.04 5.04 0 0 0-1.628.25c-.516.173-.93.424-1.247.785-.315.36-.481.8-.481 1.333 0 .487.1.879.315 1.193.216.313.499.564.864.768.366.204.831.408 1.43.628l.315.125c.482.188.864.33 1.097.455.249.126.764.392.764.847 0 .706-1.147.926-1.147.926-2.94.611-4.901-1.02-5.798-2.071.481-.204.864-.486 1.13-.863.315-.439.465-.94.465-1.537A2.48 2.48 0 0 0 68.822 4c-.266-.392-.648-.706-1.18-.941-.532-.236-1.197-.345-1.994-.345h-3.007V11.2h1.91V8.078h.698a7.588 7.588 0 0 0 6.447 3.436c.748 0 2.177-.079 2.924-.361 0 0 .133-.047.2-.079.531-.203.98-.502 1.296-.894.315-.392.465-.862.465-1.427 0-.55-.133-1.412-1.396-2.102ZM64.551 4.174h1.08c.499 0 .881.094 1.147.298.266.203.415.502.415.91 0 .454-.15.8-.465.988-.3.204-.748.298-1.313.298h-.864V4.173Z"/><path fill="#3948E3" d="M122.603 6.65c-.365-.187-.831-.376-1.429-.595l-.299-.11a11.314 11.314 0 0 1-1.03-.408c-.233-.125-.399-.235-.498-.36a.591.591 0 0 1-.133-.393c0-.235.116-.423.332-.564.233-.142.565-.204.997-.204.399 0 .764.062 1.096.172.333.11.732.298 1.18.55l.897-1.287a6.119 6.119 0 0 0-1.578-.706 5.787 5.787 0 0 0-1.595-.235c-.582 0-1.113.078-1.628.25-.516.173-.931.424-1.247.785-.315.36-.481.8-.481 1.333 0 .487.099.879.315 1.193.216.313.499.564.864.768.366.204.831.408 1.429.628l.316.125c.482.188.864.33 1.096.455.25.126.765.392.765.847 0 .706-1.147.926-1.147.926-2.941.611-4.901-1.02-5.798-2.071.481-.204.864-.486 1.129-.863.316-.439.466-.94.466-1.537 0-.502-.133-.957-.383-1.349-.265-.392-.648-.706-1.179-.941-.532-.236-1.197-.345-1.994-.345h-3.007V11.2h1.91V8.078h.698a7.588 7.588 0 0 0 6.447 3.436c.748 0 2.177-.079 2.924-.361 0 0 .133-.047.2-.079.531-.203.98-.502 1.296-.894.315-.392.465-.862.465-1.427 0-.55-.133-1.412-1.396-2.102Zm-10.634-2.477h1.08c.499 0 .881.094 1.147.298.266.203.415.502.415.91 0 .454-.149.8-.465.988-.299.204-.748.298-1.313.298h-.864V4.173ZM83.643 11.17a1.167 1.167 0 0 1-.415-.377.946.946 0 0 1-.15-.518c0-.188.05-.36.15-.517.1-.157.232-.282.415-.377.166-.094.366-.14.565-.14.2 0 .382.046.548.14.166.095.316.22.416.377.1.157.166.33.166.518s-.05.36-.15.517a1.167 1.167 0 0 1-.963.518.892.892 0 0 1-.582-.141ZM91.668 2.635v1.6h-2.875v6.917h-1.91V4.235h-2.875v-1.6h7.66ZM93.38 10.777a3.765 3.765 0 0 1-1.529-1.569c-.349-.674-.515-1.443-.515-2.337 0-.973.216-1.804.631-2.463a3.873 3.873 0 0 1 1.662-1.474 5.557 5.557 0 0 1 2.31-.487c.963 0 1.777.188 2.458.565.665.376 1.18.894 1.512 1.569.333.674.516 1.443.516 2.337 0 .988-.2 1.804-.615 2.463a3.872 3.872 0 0 1-1.662 1.474 5.556 5.556 0 0 1-2.31.486c-.963 0-1.777-.188-2.458-.564Zm3.854-1.318c.383-.235.665-.565.864-1.004.183-.44.283-.941.283-1.537 0-.926-.216-1.647-.632-2.18-.415-.518-1.03-.785-1.827-.785-.831 0-1.462.251-1.911.769-.432.517-.648 1.208-.648 2.102 0 .925.216 1.647.631 2.18.416.518 1.03.784 1.828.784.565.016 1.03-.094 1.412-.329ZM102.698 10.854c-.582-.313-1.014-.753-1.28-1.302s-.398-1.176-.398-1.866V2.635h1.927V7.45c0 .738.149 1.302.465 1.71.316.408.864.612 1.645.612.748 0 1.263-.204 1.579-.612.299-.408.465-.94.465-1.584V2.635h1.927v5.004c0 .862-.183 1.568-.532 2.117-.349.55-.83.941-1.445 1.192-.615.252-1.313.377-2.11.377-.914.016-1.662-.157-2.243-.47Z"/><path fill="#000" d="M82.212 10.227c0-.204.034-.408.1-.596h-3.39V7.59h3.324l.232-1.49h-3.555V4.188h4.087V2.682h-5.998v8.486h5.45a1.822 1.822 0 0 1-.25-.941Z"/><path fill="#3948E3" d="M31.484 8.22a39.2 39.2 0 0 1-.448-.079c-.167-.596-.466-1.6-.848-2.008-1.096-1.176-3.738-1.898-5.682-2.149a12.345 12.345 0 0 0-1.994-.11c-.316-.8-.93-1.521-1.828-2.086-1.213-.784-2.791-1.208-4.47-1.24-1.677.017-3.272.456-4.469 1.24-.897.58-1.512 1.302-1.827 2.086a14.438 14.438 0 0 0-1.994.11c-1.96.251-4.62.973-5.7 2.15-.382.407-.68 1.41-.847 2.007l-.448.078S.43 9.521.513 9.725l10.318-1.82a4.526 4.526 0 0 0 1.612 2.777c.964.8 2.26 1.255 3.672 1.302h.2c1.412-.047 2.708-.502 3.671-1.302a4.526 4.526 0 0 0 1.612-2.776l10.318 1.82c.067-.22-.432-1.507-.432-1.507ZM2.906 7.89c.133-.424.282-.769.365-.878.731-.8 3.041-1.475 4.819-1.71a8.983 8.983 0 0 1 1.578-.094c.034.455.2.988.432 1.474L2.906 7.89Zm13.292-5.96c2.143.03 4.021.893 4.735 2.054-1.511.235-2.84.753-3.854 1.522-.35.282-.648.58-.898.894a4.622 4.622 0 0 0-.897-.894c-.997-.785-2.343-1.302-3.854-1.522.747-1.16 2.625-2.023 4.768-2.055Zm4.17 5.097-.132.094c0 2.008-1.695 3.483-4.038 3.545-2.343-.062-4.037-1.521-4.037-3.545l-.133-.094c-.383-.439-.748-1.192-.848-1.725 1.28.188 2.426.612 3.24 1.239.466.36 1.03.957 1.08 1.757l.698.627.698-.627c.05-.8.615-1.396 1.08-1.757.814-.627 1.944-1.051 3.24-1.24-.1.534-.465 1.287-.848 1.726Zm1.928-.36c.233-.487.399-1.02.432-1.475.515 0 1.047.031 1.578.094 1.795.235 4.088.926 4.819 1.71.083.094.232.455.365.878l-7.194-1.208Z"/></g><defs><clipPath id="a"><path fill="#fff" d="M0 0h124v12H0z"/></clipPath></defs></svg>