<svg xmlns="http://www.w3.org/2000/svg" width="226" height="140" fill="none"><mask id="b" fill="#fff"><path d="M225.652 18.514A353.736 353.736 0 0 0 .526 18.69L41.13 139.344a226.433 226.433 0 0 1 144.108-.113l40.414-120.718Z"/></mask><path fill="#112054" d="M225.652 18.514A353.736 353.736 0 0 0 .526 18.69L41.13 139.344a226.433 226.433 0 0 1 144.108-.113l40.414-120.718Z"/><path fill="url(#a)" d="M225.652 18.514A353.736 353.736 0 0 0 .526 18.69L41.13 139.344a226.433 226.433 0 0 1 144.108-.113l40.414-120.718Z"/><path stroke="#1F71EE" stroke-width="2.033" d="M225.652 18.514A353.736 353.736 0 0 0 .526 18.69L41.13 139.344a226.433 226.433 0 0 1 144.108-.113l40.414-120.718Z" mask="url(#b)"/><defs><linearGradient id="a" x1="-16.73" x2="113.353" y1="-39.723" y2="707.687" gradientUnits="userSpaceOnUse"><stop stop-color="#483F26" stop-opacity=".23"/><stop offset=".182" stop-color="#483F26" stop-opacity="0"/></linearGradient></defs></svg>