<svg xmlns="http://www.w3.org/2000/svg" width="655" height="656" fill="none"><mask id="a" fill="#fff"><path d="M654.658 327.95c0 180.767-146.54 327.308-327.307 327.308C146.584 655.258.043 508.717.043 327.95S146.584.643 327.351.643s327.307 146.54 327.307 327.307Zm-533.13 0c0 113.673 92.15 205.822 205.823 205.822 113.672 0 205.822-92.149 205.822-205.822 0-113.672-92.15-205.822-205.822-205.822-113.673 0-205.823 92.15-205.823 205.822Z"/></mask><path fill="#112054" fill-opacity=".7" stroke="#217AFF" stroke-opacity=".48" stroke-width="2.033" d="M654.658 327.95c0 180.767-146.54 327.308-327.307 327.308C146.584 655.258.043 508.717.043 327.95S146.584.643 327.351.643s327.307 146.54 327.307 327.307Zm-533.13 0c0 113.673 92.15 205.822 205.823 205.822 113.672 0 205.822-92.149 205.822-205.822 0-113.672-92.15-205.822-205.822-205.822-113.673 0-205.823 92.15-205.823 205.822Z" mask="url(#a)"/></svg>