<svg xmlns="http://www.w3.org/2000/svg" width="140" height="71" fill="none"><g fill="#fff" fill-rule="evenodd" clip-path="url(#a)" clip-rule="evenodd"><path d="M14.485 2.69c-1.047-.675-2.63-1.013-4.748-1.013H.695v.902c.178.023.446.072.804.146.294.055.582.137.86.25.253.083.468.26.6.49.099.221.146.459.14.7V15.74c.012.256-.037.51-.145.74a1.127 1.127 0 0 1-.595.45 3.135 3.135 0 0 1-.775.156c-.37.043-.666.076-.889.099v.904h8.883v-.902a8.846 8.846 0 0 1-.88-.14 4.693 4.693 0 0 1-.75-.196 1.11 1.11 0 0 1-.594-.491 1.576 1.576 0 0 1-.155-.722v-4.614h1.34c1.006.01 2.011-.086 2.999-.289a7.35 7.35 0 0 0 2.373-.937 4.545 4.545 0 0 0 1.575-1.625 4.746 4.746 0 0 0 .572-2.387c0-1.388-.525-2.419-1.571-3.094l-.002-.002Zm-3.92 6.371c-.658.584-1.619.874-2.882.874h-.484V2.73h.958c1.271 0 2.154.298 2.651.896.497.597.746 1.512.746 2.746 0 1.211-.33 2.107-.987 2.688l-.002.002Zm12.806 8.18a3.068 3.068 0 0 1-.605-.116 5.185 5.185 0 0 1-.488-.184 1 1 0 0 1-.489-.415 1.411 1.411 0 0 1-.15-.694V.372l-.175-.184-5.82.3v.843c.28.023.558.078.825.162.246.063.48.162.7.288.21.144.375.342.48.573.12.256.181.534.18.815V15.98c.01.238-.037.473-.133.688a.876.876 0 0 1-.505.399 2.376 2.376 0 0 1-.505.116c-.19.023-.386.043-.587.058v.845h7.276v-.845h-.004Zm11.952-2.555a5.583 5.583 0 0 1-1.477 1.51 3.373 3.373 0 0 1-1.952.596c-1.324 0-2.291-.414-2.898-1.238-.61-.825-.912-2.028-.912-3.607h7.808v-.751a5.865 5.865 0 0 0-.3-1.879 3.937 3.937 0 0 0-.96-1.555 4.707 4.707 0 0 0-1.72-1.086 7.568 7.568 0 0 0-2.657-.393 6.764 6.764 0 0 0-2.674.51 5.887 5.887 0 0 0-1.98 1.33 6.086 6.086 0 0 0-1.664 4.186 7.13 7.13 0 0 0 .399 2.422 5.237 5.237 0 0 0 1.208 1.938 5.797 5.797 0 0 0 2.052 1.305 8.097 8.097 0 0 0 2.951.485 6.66 6.66 0 0 0 1.819-.225 7 7 0 0 0 1.566-.665 5.892 5.892 0 0 0 1.3-1c.371-.377.698-.794.974-1.242l-.879-.637-.004-.004Zm-7.24-3.711c.03-1.304.222-2.255.576-2.857.353-.601.827-.902 1.42-.902.31-.012.615.086.86.278.25.22.436.503.538.82.13.385.212.786.243 1.191.047.485.07.96.07 1.422l-3.708.048Zm23.621 6.267a4.366 4.366 0 0 1-1.06-.231 1.75 1.75 0 0 1-.89-.729c-.698-1.04-1.369-2.025-2.006-2.959a807.744 807.744 0 0 0-2.087-3.038c.384-.34.723-.624 1.02-.853.296-.227.6-.446.915-.655a10.3 10.3 0 0 1 1.32-.757c.57-.248 1.157-.45 1.758-.608v-.798h-5.867v.82c.374.044.741.126 1.097.244.243.092.366.209.366.348a2.12 2.12 0 0 1-.041.25c-.09.229-.235.434-.421.595-.431.44-1.001.995-1.713 1.666-.71.67-1.35 1.26-1.92 1.77V.372L42 .188l-5.75.3v.843c.267.02.533.06.796.117.231.039.454.117.658.231.225.15.397.366.49.618.107.25.164.52.168.792v12.895c.01.239-.036.476-.132.693a.823.823 0 0 1-.507.393 3.12 3.12 0 0 1-.511.11c-.194.027-.389.05-.58.064v.845h7.173v-.845a3.603 3.603 0 0 1-.554-.092 2.872 2.872 0 0 1-.484-.162.771.771 0 0 1-.468-.393 1.657 1.657 0 0 1-.12-.681v-2.52l.68-.578c.492.7 1.016 1.459 1.57 2.277a45.689 45.689 0 0 1 1.833 2.994h5.444v-.845l-.002-.002Zm15.774 0a4.576 4.576 0 0 1-.623-.117 3.351 3.351 0 0 1-.462-.161.895.895 0 0 1-.474-.406 1.533 1.533 0 0 1-.127-.68V10.21c0-1.172-.313-2.115-.94-2.833C64.225 6.66 63.29 6.3 62.044 6.3c-.5-.004-1 .062-1.482.197a4.12 4.12 0 0 0-1.114.474c-.304.19-.59.406-.858.643l-.789.712h-.047V.372L57.58.188l-5.751.3v.843c.264.02.525.058.785.11.235.038.462.117.67.238.22.156.39.373.485.624.108.248.167.516.173.786v12.895c.01.237-.036.472-.133.687a.874.874 0 0 1-.506.399 2.376 2.376 0 0 1-.507.117c-.19.022-.386.043-.587.057v.845h7.047v-.845a3.527 3.527 0 0 1-.547-.117 1.968 1.968 0 0 1-.458-.184.852.852 0 0 1-.393-.411 1.815 1.815 0 0 1-.104-.677v-6.21c.092-.123.206-.266.341-.428.158-.182.337-.342.538-.475.239-.17.503-.307.78-.405.279-.094.569-.141.861-.139.493-.025.967.196 1.265.59.297.392.446.986.446 1.78v5.411c.01.244-.023.485-.098.716a.71.71 0 0 1-.342.37 1.386 1.386 0 0 1-.462.117c-.208.023-.388.044-.543.058v.845h6.94v-.845l-.002.002Zm13.97-.244c-.231 0-.487-.006-.769-.016-.21 0-.42-.035-.617-.11a.998.998 0 0 1-.48-.45 1.771 1.771 0 0 1-.156-.821c0-.379.017-1.164.052-2.36.034-1.194.05-2.227.05-3.1a4.184 4.184 0 0 0-.42-2.006 2.94 2.94 0 0 0-1.139-1.175 4.861 4.861 0 0 0-1.686-.548 14.683 14.683 0 0 0-2.056-.133c-.59.006-1.18.07-1.756.19a7.17 7.17 0 0 0-1.674.538 4.188 4.188 0 0 0-1.252.85 1.654 1.654 0 0 0-.062 2.336l.045.045c.333.313.824.469 1.472.469.343.016.684-.027 1.014-.127a1.99 1.99 0 0 0 .596-.358c.14-.127.244-.289.3-.469.062-.157.097-.323.105-.491a2.854 2.854 0 0 0-.161-.915 4.397 4.397 0 0 1-.197-.706c.172-.118.356-.216.55-.294.27-.105.56-.154.848-.145.323-.017.644.073.914.253.223.16.398.375.509.624.11.254.176.524.196.798.03.317.047.571.047.764v1.108c-.689.301-1.4.549-2.13.737-.972.274-1.804.538-2.5.794-.342.129-.676.28-1 .452-.301.16-.573.367-.804.614-.253.27-.454.587-.59.933-.15.41-.22.843-.209 1.279-.029.81.323 1.588.948 2.101a3.463 3.463 0 0 0 2.291.792c.472.012.945-.03 1.407-.127.36-.094.71-.22 1.046-.38.276-.131.537-.289.78-.475.268-.207.522-.43.759-.671h.07c.145.501.468.93.911 1.21.445.28 1.14.42 2.087.42.494.003.985-.059 1.463-.184.409-.106.81-.241 1.2-.405v-.845l-.002.004Zm-5.776-1.25c-.204.252-.45.469-.726.643a1.922 1.922 0 0 1-1.048.26 1.388 1.388 0 0 1-1.014-.406c-.274-.27-.41-.708-.41-1.31-.01-.408.073-.816.243-1.188.153-.325.384-.61.672-.829.323-.239.672-.44 1.042-.597.425-.19.855-.358 1.288-.505l-.047 3.928v.004Zm21.993 1.494a3.162 3.162 0 0 1-.617-.117 3.892 3.892 0 0 1-.456-.161.895.895 0 0 1-.474-.406 1.533 1.533 0 0 1-.127-.68V10.21c0-1.178-.314-2.126-.942-2.838-.627-.712-1.57-1.07-2.824-1.07a5.381 5.381 0 0 0-1.478.197 4.129 4.129 0 0 0-1.12.474c-.3.199-.587.42-.854.66-.309.27-.57.5-.785.693h-.047V6.649l-.174-.174-5.51.301v.845c.237.02.47.063.699.127.186.049.364.127.525.231.203.15.368.344.485.567.118.217.182.458.184.706v6.73c.01.239-.037.476-.14.693a.847.847 0 0 1-.508.393 2.972 2.972 0 0 1-.503.11c-.196.027-.39.05-.582.064v.845h7.022v-.845a3.516 3.516 0 0 1-.544-.117 2.2 2.2 0 0 1-.462-.184.802.802 0 0 1-.38-.411 1.738 1.738 0 0 1-.116-.678v-6.21c.092-.122.206-.265.341-.427.157-.182.34-.342.54-.475.24-.17.505-.307.782-.405.278-.094.57-.141.863-.139.499-.03.98.194 1.28.595.29.397.435.989.435 1.774v5.412c.012.244-.025.487-.105.716a.73.73 0 0 1-.347.37c-.151.066-.31.105-.474.117-.209.023-.384.043-.532.058v.845h6.941v-.845l.004.004Zm10.09-10.517a9.186 9.186 0 0 0-5.649 0c-.782.266-1.5.693-2.107 1.254a5.546 5.546 0 0 0-1.334 1.925 6.454 6.454 0 0 0-.446 2.47c-.012.876.16 1.745.509 2.55.319.73.791 1.383 1.386 1.913a6.09 6.09 0 0 0 2.097 1.215 7.972 7.972 0 0 0 2.593.403 8.394 8.394 0 0 0 2.894-.462 6.218 6.218 0 0 0 2.177-1.33 5.302 5.302 0 0 0 1.3-1.948 6.645 6.645 0 0 0 .445-2.423 6.355 6.355 0 0 0-.449-2.406 5.318 5.318 0 0 0-1.306-1.907 6.166 6.166 0 0 0-2.108-1.254h-.002ZM106.12 17.13a2.064 2.064 0 0 1-2.448-.028 2.626 2.626 0 0 1-.762-1.134 6.486 6.486 0 0 1-.393-1.66 20.877 20.877 0 0 1-.079-2.086c0-.616.028-1.232.091-1.844a6.35 6.35 0 0 1 .336-1.545c.155-.444.415-.845.756-1.168a2.1 2.1 0 0 1 2.553-.035c.349.31.613.704.768 1.146.182.532.298 1.082.347 1.643a16.81 16.81 0 0 1-.004 4 6.7 6.7 0 0 1-.376 1.574 2.59 2.59 0 0 1-.784 1.14l-.005-.003Zm19.488-10.517h-4.77v.843c.116.017.261.043.439.082.19.043.376.1.556.174.172.07.333.16.48.272a.452.452 0 0 1 .203.364c0 .04-.006.117-.017.232a2.02 2.02 0 0 1-.12.45 198.042 198.042 0 0 1-1.298 3.081 130.02 130.02 0 0 1-1.102 2.468c-.556-1.218-1.083-2.378-1.582-3.479-.498-1.1-.87-1.945-1.117-2.53a7.09 7.09 0 0 1-.117-.314.83.83 0 0 1-.047-.208c0-.17.178-.31.531-.416.299-.098.609-.155.924-.174v-.845h-7.114v.843a2.65 2.65 0 0 1 1.044.383c.335.2.599.5.756.855a484.664 484.664 0 0 0 1.993 4.37 221.01 221.01 0 0 1 2.271 5.122h2.125c.131-.415.295-.88.491-1.387.196-.508.372-.925.525-1.248.501-1.072 1.01-2.18 1.531-3.325a170.02 170.02 0 0 1 1.588-3.405 2.34 2.34 0 0 1 .813-.972c.307-.2.65-.333 1.012-.393v-.845l.002.002ZM19.111 22.383h-7.114v.902c.353.068.7.151 1.046.254.376.084.732.24 1.044.462.315.276.532.649.618 1.058.16.726.226 1.471.202 2.214v5.561c0 1.588-.38 2.791-1.143 3.608-.762.816-1.81 1.225-3.149 1.225-1.361 0-2.4-.37-3.115-1.11-.715-.742-1.073-1.924-1.073-3.55v-8.28c-.004-.251.047-.499.152-.728a.9.9 0 0 1 .588-.462c.254-.082.511-.148.775-.19.25-.042.498-.072.75-.087v-.88H.098v.88c.184.023.423.066.715.127.255.05.505.131.74.244.245.11.452.293.595.52.108.214.163.452.155.693v8.395c0 1.889.64 3.362 1.917 4.418 1.277 1.056 3.084 1.584 5.416 1.584 2.003 0 3.611-.547 4.828-1.641 1.216-1.095 1.825-2.54 1.825-4.336v-6.106c-.023-.755.038-1.512.18-2.254.118-.502.324-.848.617-1.042a2.682 2.682 0 0 1 1.056-.421c.42-.08.742-.133.965-.156v-.902h.004Zm15.987 15.564a3.162 3.162 0 0 1-.618-.116 4.006 4.006 0 0 1-.455-.162.895.895 0 0 1-.474-.405 1.536 1.536 0 0 1-.127-.683v-5.666c0-1.178-.315-2.126-.942-2.838-.628-.712-1.57-1.07-2.825-1.07a5.38 5.38 0 0 0-1.478.196 4.131 4.131 0 0 0-1.12.475c-.3.199-.586.42-.856.659-.309.27-.57.501-.785.694h-.047v-1.676l-.173-.174-5.51.3v.844c.236.02.47.063.698.127.186.05.364.128.526.23.202.15.368.345.484.568.119.216.182.458.184.705v6.73c.01.24-.037.477-.139.694a.853.853 0 0 1-.509.393 2.97 2.97 0 0 1-.503.11c-.196.027-.39.05-.582.064v.845h7.022v-.845a3.529 3.529 0 0 1-.543-.117 2.242 2.242 0 0 1-.462-.184.803.803 0 0 1-.38-.412 1.74 1.74 0 0 1-.117-.677v-6.21c.092-.123.207-.266.341-.427a2.65 2.65 0 0 1 .54-.475c.241-.17.505-.307.783-.405.278-.094.57-.141.862-.14.499-.03.981.195 1.28.596.29.397.433.988.433 1.776v5.412c.012.243-.025.487-.104.716a.73.73 0 0 1-.348.37c-.15.066-.31.105-.474.117-.208.023-.384.043-.531.057v.846h6.94v-.843h.003l.006.002Zm8.729 0a3.766 3.766 0 0 1-1.085-.3 1.041 1.041 0 0 1-.497-.422 1.305 1.305 0 0 1-.174-.687v-9.183l-.174-.174-5.659.3v.844a4.1 4.1 0 0 1 .769.161c.22.06.433.15.63.266.187.127.344.295.46.491.128.215.191.463.185.712v6.73c.01.24-.041.477-.151.688a.953.953 0 0 1-.52.399c-.159.059-.326.098-.496.116-.192.023-.388.043-.589.058v.845h7.3v-.845.002ZM41.47 21.515a2.383 2.383 0 0 0-3.217 0 2.003 2.003 0 0 0 0 3c.912.824 2.3.824 3.211 0 .433-.377.68-.923.677-1.498a1.984 1.984 0 0 0-.67-1.504v.002Zm16.941 5.805H53.64v.843c.116.016.262.043.44.082.19.043.375.1.555.174.172.07.333.161.48.272a.453.453 0 0 1 .203.364c0 .039-.006.117-.016.231a2.038 2.038 0 0 1-.121.45 139.08 139.08 0 0 1-2.4 5.547c-.555-1.217-1.083-2.377-1.581-3.478-.499-1.1-.871-1.946-1.118-2.531a7.635 7.635 0 0 1-.117-.311.817.817 0 0 1-.047-.209c0-.17.178-.309.532-.415.298-.098.609-.155.923-.174v-.843h-7.116v.843c.372.053.727.182 1.046.383.336.2.6.499.757.855a476.49 476.49 0 0 0 1.992 4.37 212.428 212.428 0 0 1 2.269 5.124h2.125c.131-.416.295-.878.49-1.387.197-.51.373-.925.526-1.248.5-1.073 1.01-2.18 1.531-3.325.521-1.146 1.048-2.28 1.588-3.405.176-.393.458-.73.813-.972.307-.2.65-.334 1.012-.393v-.843h.002l.004-.004Zm12.136 8.072a5.58 5.58 0 0 1-1.477 1.51 3.374 3.374 0 0 1-1.952.595c-1.325 0-2.291-.413-2.898-1.237-.61-.825-.912-2.028-.912-3.608h7.807V31.9a5.865 5.865 0 0 0-.3-1.878 3.936 3.936 0 0 0-.959-1.555 4.71 4.71 0 0 0-1.72-1.087 7.616 7.616 0 0 0-2.657-.393 6.728 6.728 0 0 0-2.674.51 5.885 5.885 0 0 0-1.98 1.33 6.086 6.086 0 0 0-1.664 4.186 7.13 7.13 0 0 0 .399 2.423 5.237 5.237 0 0 0 1.208 1.938 5.775 5.775 0 0 0 2.05 1.307c.944.344 1.945.51 2.95.485a6.576 6.576 0 0 0 1.82-.225 7.08 7.08 0 0 0 1.565-.665 5.889 5.889 0 0 0 1.3-1c.37-.377.7-.795.975-1.243l-.877-.636-.004-.004Zm-7.24-3.712c.03-1.303.222-2.255.578-2.856.355-.602.827-.902 1.42-.902.31-.013.615.085.86.278.25.219.436.503.538.82.13.385.212.786.243 1.191.047.485.07.96.07 1.422l-3.708.047h-.002ZM83.74 27.72a2.311 2.311 0 0 0-1.727-.665 3.622 3.622 0 0 0-1.866.526 6.803 6.803 0 0 0-1.692 1.45h-.047v-1.677l-.174-.174-5.51.3v.844c.237.02.47.063.699.127.186.05.364.128.525.23.192.142.354.32.474.526.133.226.2.483.197.747v6.73c.01.24-.037.477-.14.694a.853.853 0 0 1-.508.392 2.98 2.98 0 0 1-.503.111c-.196.027-.39.05-.583.063v.846h7.726v-.846a9.291 9.291 0 0 1-.826-.098 2.964 2.964 0 0 1-.825-.215.896.896 0 0 1-.428-.415 1.54 1.54 0 0 1-.126-.671v-6.347c.286-.369.637-.68 1.04-.917.337-.21.724-.337 1.12-.366-.03.13-.065.27-.104.42a2.601 2.601 0 0 0-.058.628c-.028.49.19.961.583 1.254.417.292.918.442 1.427.425a1.755 1.755 0 0 0 1.432-.665 2.527 2.527 0 0 0-.11-3.261l.004.004Zm11.028 10.425c.99-.694 1.484-1.674 1.484-2.936a3.108 3.108 0 0 0-.956-2.341c-.638-.614-1.646-1.097-3.021-1.45a9.884 9.884 0 0 1-2.08-.741 1.333 1.333 0 0 1-.745-1.273 1.201 1.201 0 0 1 .51-1.03 2.345 2.345 0 0 1 1.397-.37 3.125 3.125 0 0 1 2.114.874 4.774 4.774 0 0 1 1.385 2.075h.81l-.186-3.943h-.88l-.242.681a9.906 9.906 0 0 0-1.484-.468 8.204 8.204 0 0 0-1.934-.213c-1.477 0-2.673.336-3.587 1.007a3.13 3.13 0 0 0-1.369 2.637 3.267 3.267 0 0 0 1.145 2.6c.347.306.737.557 1.16.748.44.182.89.337 1.345.468.523.154.965.285 1.323.393.341.1.67.233.987.393.245.127.462.305.635.52.16.22.242.49.231.763 0 .57-.171.992-.513 1.266-.343.274-.864.411-1.565.411a3.245 3.245 0 0 1-1.496-.358 5.284 5.284 0 0 1-1.243-.88 6.494 6.494 0 0 1-.924-1.174 5.707 5.707 0 0 1-.578-1.174h-.842l.15 4.313h.9l.348-.786a7.192 7.192 0 0 0 1.655.702c.71.219 1.447.33 2.19.33 1.593 0 2.885-.348 3.874-1.042l.002-.002Zm10.559-.197a3.783 3.783 0 0 1-1.088-.3 1.04 1.04 0 0 1-.496-.422 1.303 1.303 0 0 1-.174-.687v-9.183l-.174-.174-5.66.3v.844a4.1 4.1 0 0 1 .77.161c.22.06.433.15.629.266.188.127.345.295.462.491.126.215.19.463.184.712v6.73c.01.24-.041.477-.15.688a.953.953 0 0 1-.519.399 2.06 2.06 0 0 1-.496.116c-.192.023-.389.043-.589.058v.845h7.301v-.845.002Zm-2.357-16.432a2.383 2.383 0 0 0-3.217 0 2.003 2.003 0 0 0 0 3 2.393 2.393 0 0 0 3.211 0c.433-.377.681-.923.676-1.498a1.982 1.982 0 0 0-.67-1.504v.002Zm12.367 15.774a5.484 5.484 0 0 1-.777.104c-.369.03-.66.047-.868.047-.65 0-1.1-.188-1.351-.565-.252-.376-.376-1.017-.376-1.917V28.63h3.223v-1.26h-3.246v-3.504H108.2v3.503h-2.125v1.26h2.078v7.092c0 1.087.29 1.922.873 2.507.58.585 1.473.878 2.673.878a7.043 7.043 0 0 0 2.056-.26 14.89 14.89 0 0 0 1.582-.583v-.974Zm14.215-9.969h-4.771v.843a6 6 0 0 1 .438.082c.188.043.374.1.554.174.171.07.331.161.478.272a.451.451 0 0 1 .202.364c0 .039-.006.115-.018.225-.025.158-.07.311-.133.456-.315.762-.64 1.535-.975 2.323-.335.788-.74 1.727-1.216 2.82-.638-1.284-1.198-2.405-1.678-3.362-.48-.958-.852-1.705-1.112-2.243a3.309 3.309 0 0 1-.126-.317.663.663 0 0 1-.035-.203c0-.17.172-.309.513-.415.292-.098.597-.158.903-.174v-.843h-7.069v.843a2.48 2.48 0 0 1 1.028.377c.331.212.599.509.774.861.877 1.741 1.67 3.319 2.377 4.733a268.611 268.611 0 0 1 2.434 5.008 5.634 5.634 0 0 1-.825 1.56 10.49 10.49 0 0 1-.94 1.141 7.23 7.23 0 0 0-1.225-1.248 1.998 1.998 0 0 0-1.234-.45 2.042 2.042 0 0 0-.873.18 1.44 1.44 0 0 0-.572.434 1.585 1.585 0 0 0-.317.579 2.264 2.264 0 0 0-.075.601c.012.537.259 1.04.676 1.377a2.542 2.542 0 0 0 1.772.614 3.01 3.01 0 0 0 1.098-.208c.4-.162.77-.39 1.097-.671.474-.424.897-.9 1.259-1.422.54-.78 1.004-1.609 1.386-2.474a306.105 306.105 0 0 0 2.332-5.14 205.928 205.928 0 0 1 2.043-4.481c.176-.393.458-.73.814-.972.306-.2.65-.334 1.012-.393v-.843l.004-.008ZM70.662 67.29c.133-.672.344-1.483.344-1.483-1.212 2.174-2.518 3.49-3.019 3.567-.368.057-.562-.154-.552-.667.023-1.099.73-2.987 1.721-5.776.284-.796.493-1.275.497-1.447.008-.344-.223-.514-.624-.452-.633.098-1.308.442-1.584.929-.517.833-1.55 4.039-1.6 6.408-.039 1.787.707 2.697 1.844 2.523 1.236-.19 1.547-.196 2.76-2.402m-1.266-8.37c.868-.136 1.72-1.054 1.737-1.844.012-.583-.282-.813-.85-.725-.569.088-1.979.717-2.001 1.748-.014.687.513.912 1.114.82Zm6.652 3.35c-.37 1.701-.562 2.929-.578 3.719-.037 1.751.611 2.576 1.713 2.406.468-.072.94-.385 1.383-.898 1.64-1.93 2.524-4.395 2.526-4.532.004-.24-.486-.576-.686-.545-.368.058-.374.367-.583.74-1.247 2.282-1.874 3.578-2.475 3.67-.2.03-.329-.223-.317-.704.01-.446.209-1.948.853-4.103.429-1.367.746-2.169.848-2.322.137-.192.676-.48.684-.927.015-.653-.776-1.078-1.41-.98-.901.14-2.593 3.036-5.414 8.813.828-4.44 2.275-6.753 2.281-7.029.01-.446-.552-.667-.985-.601-.668.104-.907.448-1.259 1.323-1.476 3.65-2.005 6.957-2.023 7.501-.02.997.635 1.373 1.371 1.26 1.034-.159 1.615-2.405 4.071-6.79ZM94.348 47.57c-4.135 11.284-5.242 17.925-5.259 18.68-.022 1.032.634 1.478 1.938 1.275 1.87-.288 5.373-2.2 8.944-5.799 3.707-3.721 5.612-7.235 5.679-10.324.102-4.809-3.106-7.325-9.15-6.39-2.003.309-2.375.538-2.393 1.432 0 .389.084.772.241 1.126Zm2.491.265c.904-.208 1.404-.319 1.572-.345 3.44-.532 5.246.558 5.191 3.134-.045 2.13-1.447 5.427-4.214 8.764-2.357 2.83-4.997 4.915-7.887 6.183.599-3.139 2.226-9.142 5.338-17.735Zm13.43 13.292c-.059.336-.1.673-.12 1.01-.033 1.546.75 2.315 1.784 2.155.901-.139 1.58-.724 2.303-1.827.286-.428.368-.775.446-1.14.137-.644.245-1.123.472-2.062.047-.19.198-.79.249-.966.012-.045-.041-.114-.078-.108-.333.05-.371.296-.582.808-1.053 2.49-1.878 3.781-2.579 3.89-.168.026-.295-.262-.28-.88.075-3.573 2.248-7.057 2.256-7.503.012-.55-.644-.997-1.212-.909-.568.088-1.012.637-1.13 1.51-1.913 5.396-3.237 8.168-4.139 8.307-.433.068-.56-.22-.548-.838.023-1.064.673-3.458 2.279-6.96.15-.165.246-.37.278-.59a.932.932 0 0 0-1.077-.964c-.4.061-.707.348-.985.904-1.529 3.043-2.23 6.267-2.264 7.812-.015.688.143 1.107.6 1.516.313.377.81.549 1.288.45.969-.149 1.995-1.368 3.041-3.617l-.002.002Zm7.681-5.842c1.484-5.604 2.881-8.66 3.155-9.045.344-.465.849-.782.857-1.126.002-.102-.162-.25-.491-.403-.325-.325-.621-.485-.889-.444-.501.078-.991 1.213-1.805 3.427-3.149 8.737-4.259 13.973-4.275 14.798-.01.515.353.56 1.353.544.621.485 1.15.712 1.852.604 1.101-.17 2.284-1.003 3.008-2.177 1.619-2.579 2.44-5.204 2.475-6.783.037-1.684-.542-2.654-1.645-2.484-1.104.17-2.257 1.205-3.595 3.09Zm3.194-1.52c.233-.037.462.237.45.751-.019.86-.601 3.173-2.193 6.09-.658 1.196-1.271 1.839-2.073 1.964-.733.112-1.058-.248-1.042-1.038.033-1.58.668-3.218 1.97-4.994 1.304-1.811 2.387-2.697 2.888-2.775v.002Zm7.589 4.782a4.85 4.85 0 0 0-.047.691c-.029 1.306.525 1.938 1.459 1.795.769-.119 1.38-.726 2.101-1.762.711-1.019 1.326-1.843 1.412-2.486a16.719 16.719 0 0 1 .254-1.481c.02-.1-.201-.162-.313-.143-.2.03-.343.464-.893 1.3-1.204 1.865-1.893 2.861-2.258 2.917-.233.036-.299-.09-.291-.4.011-.48.409-2.015 1.425-4.396.595-1.394 1.079-2.186 1.087-2.564.01-.481-.515-.81-1.316-.686a3.38 3.38 0 0 0-.905.311c-.454-.58-.914-.85-1.55-.753-1.001.156-2.428 1.471-3.711 3.894-1.214 2.275-1.789 4.213-1.819 5.69-.027 1.27.656 1.987 1.625 1.838 1.201-.187 2.561-1.457 3.742-3.763l-.002-.002Zm1.181-5.453c-.002.137-.65 2.429-2.41 5.301-.966 1.588-1.814 2.403-2.182 2.46-.201.03-.266-.062-.26-.336.014-.618.448-2.26 1.594-4.526 1.077-2.152 2.099-3.235 2.768-3.337a.394.394 0 0 1 .488.438h.002Zm5.502 7.33c1.236-.191 2.226-1.372 3.438-3.58.658-1.231 1.038-1.872 1.042-2.044a.553.553 0 0 0-.544-.56h-.043c-.2.03-.343.497-.725 1.207-1.212 2.173-2.369 3.378-2.87 3.456-.367.057-.562-.154-.551-.667.022-1.099.729-2.987 1.72-5.776.285-.798.493-1.275.497-1.447.008-.344-.223-.514-.623-.452-.634.098-1.308.442-1.584.929-.517.833-1.551 4.039-1.601 6.408-.038 1.787.708 2.697 1.844 2.523v.002Zm1.494-10.774c.869-.135 1.721-1.053 1.737-1.843.013-.583-.282-.813-.85-.724-.568.087-1.978.716-2.001 1.747-.014.687.513.913 1.114.82Z"/></g><defs><clipPath id="a"><path fill="#fff" d="M0 0h140v71H0z"/></clipPath></defs></svg>