<svg xmlns="http://www.w3.org/2000/svg"  viewBox="0 0 1920 107" fill="none"><g opacity=".68"><path fill="#112054" d="M48 15h-68v108.5c0 22 1735.5 9.167 1988.5 0l5-68h-149l-8 7h-18l-26.5 30H525l-31-31h-52.5L429 49h-39.5L377 61.5h-65.5L265 15H155L141 1H62L48 15Z"/><path stroke="#78693F" stroke-opacity=".4" d="m141.207.5 14 14h110l46.5 46.5h65.086l12.5-12.5h39.914l12.5 12.5h52.5l31 31H1771.77l26.35-29.831.15-.169h18.04l7.86-6.876.14-.124h149.73l-.04.537-5 68-.03.446-.45.017c-126.51 4.584-623.65 10.083-1089.143 11.688-232.751.802-457.597.63-624.257-1.118-83.329-.873-152.116-2.141-200.072-3.878-23.977-.868-42.753-1.854-55.54-2.967-6.39-.557-11.298-1.146-14.614-1.772-1.655-.312-2.938-.637-3.818-.981-.437-.171-.804-.359-1.071-.572-.26-.207-.505-.505-.505-.9v-109h68.293l14-14h79.414Z"/></g></svg>